<?xml version="1.0" standalone="no"?>
<!DOCTYPE svg PUBLIC "-//W3C//DTD SVG 20010904//EN"
 "http://www.w3.org/TR/2001/REC-SVG-20010904/DTD/svg10.dtd">
<svg version="1.0" xmlns="http://www.w3.org/2000/svg"
 width="1215.000000pt" height="1215.000000pt" viewBox="0 0 1215.000000 1215.000000"
 preserveAspectRatio="xMidYMid meet">
<metadata>
Created by potrace 1.14, written by Peter Selinger 2001-2017
</metadata>
<g transform="translate(0.000000,1215.000000) scale(0.100000,-0.100000)"
fill="#000000" stroke="none">
<path d="M4930 10565 l0 -385 -837 -2 -838 -3 -5 -1204 c-4 -1056 -7 -1205
-20 -1212 -8 -5 -215 -70 -460 -145 -245 -75 -448 -139 -451 -143 -4 -3 52
-125 125 -271 466 -940 802 -1945 925 -2775 24 -161 33 -188 66 -203 48 -22
187 -34 338 -29 255 8 395 54 717 237 158 89 195 101 351 107 198 9 275 -13
500 -139 301 -169 477 -216 774 -205 252 9 409 56 710 212 209 108 285 135
378 135 40 0 90 -5 112 -11 22 -6 137 -59 255 -119 326 -164 473 -207 745
-217 167 -6 319 6 390 30 l39 14 22 144 c129 861 489 1940 957 2868 59 118
104 218 100 222 -6 5 -915 289 -926 289 -1 0 -1 538 1 1196 1 879 -1 1200 -9
1210 -10 12 -153 14 -840 14 l-829 0 -2 383 -3 382 -1142 3 -1143 2 0 -385z
m3070 -1850 c0 -467 -3 -665 -11 -665 -6 0 -110 31 -232 69 -219 69 -822 256
-1395 433 l-292 90 -293 -90 c-160 -50 -590 -183 -954 -296 -364 -113 -666
-206 -672 -206 -8 0 -11 199 -11 665 l0 665 1930 0 1930 0 0 -665z"/>
<path d="M2290 4125 c-221 -31 -465 -103 -724 -212 -115 -48 -318 -147 -354
-171 -11 -7 30 -83 178 -333 106 -178 196 -328 201 -333 5 -6 59 15 136 52
346 165 619 238 863 230 156 -6 200 -20 413 -134 183 -96 298 -145 435 -182
90 -24 113 -26 302 -26 199 0 209 1 323 31 126 34 242 86 447 203 158 89 195
101 351 107 198 9 275 -13 500 -139 301 -169 477 -216 774 -205 252 9 409 56
710 212 209 108 285 135 378 135 40 0 90 -5 112 -11 22 -6 137 -59 255 -119
224 -112 339 -157 500 -193 132 -29 481 -31 610 -3 188 41 297 84 572 228 70
36 152 73 182 82 128 38 323 8 631 -97 122 -42 339 -129 419 -169 32 -16 62
-26 67 -21 4 4 84 161 177 349 l170 340 -112 52 c-289 133 -635 253 -876 303
-112 23 -181 32 -305 36 -275 9 -400 -23 -724 -189 -292 -149 -330 -161 -501
-162 -97 0 -153 4 -200 17 -36 9 -164 66 -285 127 -346 173 -400 189 -650 197
-285 9 -403 -22 -735 -189 -242 -122 -310 -147 -425 -155 -126 -8 -190 12
-405 127 -196 105 -250 129 -370 165 -147 44 -204 50 -455 50 -226 -1 -246 -2
-340 -27 -157 -41 -264 -84 -387 -155 -203 -117 -232 -132 -298 -149 -48 -12
-87 -15 -148 -11 -121 9 -205 45 -493 216 -52 30 -213 86 -325 112 -116 27
-450 35 -594 14z"/>
<path d="M2460 2843 c-317 -22 -605 -99 -965 -258 -116 -52 -295 -142 -295
-150 0 -3 390 -658 396 -664 2 -2 59 24 126 57 316 154 599 234 838 234 174 1
224 -15 490 -159 303 -162 563 -218 850 -182 199 24 323 69 560 204 91 51 186
100 213 109 126 42 343 39 470 -7 35 -13 138 -64 228 -113 90 -49 204 -104
252 -122 310 -116 680 -106 1003 29 52 22 159 73 237 114 201 105 264 127 362
127 102 0 151 -17 359 -126 89 -46 202 -100 252 -120 186 -74 425 -113 629
-103 271 14 435 62 738 217 117 59 232 113 257 120 67 18 202 14 315 -10 175
-38 489 -149 718 -254 l77 -36 175 349 174 349 -112 52 c-332 156 -718 282
-999 326 -119 19 -341 21 -443 4 -119 -19 -272 -78 -471 -180 -267 -138 -314
-153 -484 -154 -97 0 -153 4 -200 17 -36 9 -168 68 -295 131 -126 63 -256 124
-287 135 -260 93 -591 84 -858 -21 -41 -16 -158 -72 -259 -124 -209 -107 -282
-133 -396 -141 -126 -8 -190 12 -405 127 -297 159 -424 199 -684 219 -323 25
-610 -37 -868 -186 -203 -117 -232 -132 -298 -149 -87 -22 -202 -14 -294 20
-37 14 -129 59 -204 99 -215 114 -310 152 -476 188 -82 18 -298 41 -356 37
-14 -1 -45 -3 -70 -5z"/>
</g>
</svg>
